<svg xmlns="http://www.w3.org/2000/svg" width="50.207" height="41.544" viewBox="0 0 50.207 41.544"><g transform="translate(0)"><path d="M388.46,300.688a.648.648,0,0,1-.319-.085l-18.469-10.442a.652.652,0,0,1-.246-.887l14.547-25.73a.651.651,0,0,1,.887-.246l18.469,10.442a.652.652,0,0,1,.246.887l-14.547,25.73a.647.647,0,0,1-.392.307A.654.654,0,0,1,388.46,300.688Z" transform="translate(-353.452 -259.144)" fill="#e6e6e6"/><rect width="0.151" height="22.423" transform="matrix(0.492, -0.871, 0.871, 0.492, 29.93, 5.539)" fill="#fff"/><rect width="0.151" height="22.423" transform="matrix(0.492, -0.871, 0.871, 0.492, 28.594, 7.902)" fill="#fff"/><rect width="0.151" height="22.423" transform="matrix(0.492, -0.871, 0.871, 0.492, 27.259, 10.265)" fill="#fff"/><rect width="0.151" height="22.423" transform="matrix(0.492, -0.871, 0.871, 0.492, 25.923, 12.628)" fill="#fff"/><rect width="0.151" height="22.423" transform="matrix(0.492, -0.871, 0.871, 0.492, 24.587, 14.991)" fill="#fff"/><rect width="0.151" height="22.423" transform="matrix(0.492, -0.871, 0.871, 0.492, 23.251, 17.354)" fill="#fff"/><rect width="0.151" height="22.423" transform="matrix(0.492, -0.871, 0.871, 0.492, 21.915, 19.717)" fill="#fff"/><rect width="0.151" height="22.423" transform="matrix(0.492, -0.871, 0.871, 0.492, 20.579, 22.08)" fill="#fff"/><rect width="0.151" height="22.423" transform="matrix(0.492, -0.871, 0.871, 0.492, 19.243, 24.443)" fill="#fff"/><rect width="0.151" height="22.423" transform="matrix(0.492, -0.871, 0.871, 0.492, 17.907, 26.806)" fill="#fff"/><rect width="0.151" height="22.423" transform="matrix(0.492, -0.871, 0.871, 0.492, 16.571, 29.169)" fill="#fff"/><path d="M370.46,259.688a.648.648,0,0,1-.319-.085l-18.47-10.442a.652.652,0,0,1-.246-.887l14.547-25.73a.651.651,0,0,1,.887-.246l18.469,10.442a.652.652,0,0,1,.246.887l-14.547,25.73a.647.647,0,0,1-.392.307A.654.654,0,0,1,370.46,259.688Z" transform="translate(-337.17 -222.058)" fill="#f2f2f2"/><rect width="0.151" height="22.423" transform="matrix(0.492, -0.871, 0.871, 0.492, 28.212, 1.625)" fill="#fff"/><rect width="0.151" height="22.423" transform="matrix(0.492, -0.871, 0.871, 0.492, 26.876, 3.988)" fill="#fff"/><rect width="0.151" height="22.423" transform="matrix(0.492, -0.871, 0.871, 0.492, 25.54, 6.351)" fill="#fff"/><rect width="0.151" height="22.423" transform="matrix(0.492, -0.871, 0.871, 0.492, 24.204, 8.714)" fill="#fff"/><rect width="0.151" height="22.423" transform="matrix(0.492, -0.871, 0.871, 0.492, 22.868, 11.077)" fill="#fff"/><rect width="0.151" height="22.423" transform="matrix(0.492, -0.871, 0.871, 0.492, 21.532, 13.44)" fill="#fff"/><rect width="0.151" height="22.423" transform="matrix(0.492, -0.871, 0.871, 0.492, 20.197, 15.803)" fill="#fff"/><rect width="0.151" height="22.423" transform="matrix(0.492, -0.871, 0.871, 0.492, 18.861, 18.166)" fill="#fff"/><rect width="0.151" height="22.423" transform="matrix(0.492, -0.871, 0.871, 0.492, 17.525, 20.529)" fill="#fff"/><rect width="0.151" height="22.423" transform="matrix(0.492, -0.871, 0.871, 0.492, 16.189, 22.892)" fill="#fff"/><rect width="0.151" height="22.423" transform="matrix(0.492, -0.871, 0.871, 0.492, 14.853, 25.255)" fill="#fff"/><path d="M252.643,220.586H223.126V261.63h29.517a.4.4,0,0,0,.4-.4V220.986a.4.4,0,0,0-.4-.4ZM224.792,260.5a.733.733,0,1,1,.733-.733.733.733,0,0,1-.733.733Zm0-3.731a.733.733,0,1,1,.733-.733A.733.733,0,0,1,224.792,256.766Zm0-3.731a.733.733,0,1,1,.733-.733.733.733,0,0,1-.733.733Zm0-3.731a.733.733,0,1,1,.733-.733A.733.733,0,0,1,224.792,249.3Zm0-3.731a.733.733,0,1,1,.733-.733.733.733,0,0,1-.733.733Zm0-3.731a.733.733,0,1,1,.733-.733.733.733,0,0,1-.733.733Zm0-3.731a.733.733,0,1,1,.733-.733.733.733,0,0,1-.733.733Zm0-3.731a.733.733,0,1,1,.733-.733A.733.733,0,0,1,224.792,234.378Zm0-3.731a.733.733,0,1,1,.733-.733.733.733,0,0,1-.733.733Zm0-3.731a.733.733,0,1,1,.733-.733.733.733,0,0,1-.733.733Zm0-3.731a.733.733,0,1,1,.733-.733.733.733,0,0,1-.733.733Z" transform="translate(-221.194 -220.586)" fill="#3f3d56"/><path d="M204.815,238.005c-.2,0-1.932-.009-1.932-.333s1.734-.333,1.932-.333v.133a5.035,5.035,0,0,0-1.791.2,8.129,8.129,0,0,0,3.581,0,2.224,2.224,0,0,0-.831-.162l.011-.133c.962.083.962.237.962.295C206.747,238,205.012,238.005,204.815,238.005Z" transform="translate(-202.882 -235.74)" fill="#2f2e41"/><path d="M204.815,276.4c-.2,0-1.932-.009-1.932-.333s1.734-.333,1.932-.333v.133a5.035,5.035,0,0,0-1.791.2,8.129,8.129,0,0,0,3.581,0,2.225,2.225,0,0,0-.831-.162l.011-.133c.962.083.962.237.962.295C206.747,276.389,205.012,276.4,204.815,276.4Z" transform="translate(-202.882 -270.468)" fill="#2f2e41"/><path d="M204.815,315.489c-.2,0-1.932-.009-1.932-.333s1.734-.333,1.932-.333v.133a5.035,5.035,0,0,0-1.791.2,8.13,8.13,0,0,0,3.581,0,2.223,2.223,0,0,0-.831-.162l.011-.133c.962.083.962.237.962.295C206.747,315.48,205.012,315.489,204.815,315.489Z" transform="translate(-202.882 -305.828)" fill="#2f2e41"/><path d="M204.815,354.58c-.2,0-1.932-.009-1.932-.333s1.734-.333,1.932-.333v.133a5.035,5.035,0,0,0-1.791.2,8.129,8.129,0,0,0,3.581,0,2.225,2.225,0,0,0-.831-.162l.011-.133c.962.083.962.237.962.295C206.747,354.571,205.012,354.58,204.815,354.58Z" transform="translate(-202.882 -341.187)" fill="#2f2e41"/><path d="M204.815,393.671c-.2,0-1.932-.009-1.932-.333s1.734-.333,1.932-.333v.133a5.035,5.035,0,0,0-1.791.2,8.13,8.13,0,0,0,3.581,0,2.223,2.223,0,0,0-.831-.162l.011-.133c.962.083.962.237.962.295C206.747,393.662,205.012,393.671,204.815,393.671Z" transform="translate(-202.882 -376.547)" fill="#2f2e41"/><path d="M204.815,432.762c-.2,0-1.932-.009-1.932-.333s1.734-.333,1.932-.333v.133a5.035,5.035,0,0,0-1.791.2,8.13,8.13,0,0,0,3.581,0,2.223,2.223,0,0,0-.831-.162l.011-.133c.962.083.962.237.962.295C206.747,432.752,205.012,432.762,204.815,432.762Z" transform="translate(-202.882 -411.907)" fill="#2f2e41"/><path d="M204.815,471.853c-.2,0-1.932-.009-1.932-.333s1.734-.333,1.932-.333v.133a5.035,5.035,0,0,0-1.791.2,8.129,8.129,0,0,0,3.581,0,2.224,2.224,0,0,0-.831-.162l.011-.133c.962.083.962.237.962.295C206.747,471.843,205.012,471.853,204.815,471.853Z" transform="translate(-202.882 -447.266)" fill="#2f2e41"/><path d="M204.815,510.944c-.2,0-1.932-.009-1.932-.333s1.734-.333,1.932-.333v.133a5.035,5.035,0,0,0-1.791.2,8.13,8.13,0,0,0,3.581,0,2.223,2.223,0,0,0-.831-.162l.011-.133c.962.083.962.237.962.295C206.747,510.934,205.012,510.944,204.815,510.944Z" transform="translate(-202.882 -482.626)" fill="#2f2e41"/><path d="M204.815,550.035c-.2,0-1.932-.009-1.932-.333s1.734-.333,1.932-.333v.133a5.035,5.035,0,0,0-1.791.2,8.13,8.13,0,0,0,3.581,0,2.223,2.223,0,0,0-.831-.162l.011-.133c.962.083.962.237.962.295C206.747,550.025,205.012,550.035,204.815,550.035Z" transform="translate(-202.882 -517.986)" fill="#2f2e41"/><path d="M204.815,589.125c-.2,0-1.932-.009-1.932-.333s1.734-.333,1.932-.333v.133a5.035,5.035,0,0,0-1.791.2,8.13,8.13,0,0,0,3.581,0,2.223,2.223,0,0,0-.831-.162l.011-.133c.962.083.962.237.962.295C206.747,589.116,205.012,589.125,204.815,589.125Z" transform="translate(-202.882 -553.345)" fill="#2f2e41"/><path d="M204.815,628.216c-.2,0-1.932-.009-1.932-.333s1.734-.333,1.932-.333v.133a5.033,5.033,0,0,0-1.791.2,8.131,8.131,0,0,0,3.581,0,2.225,2.225,0,0,0-.831-.162l.011-.133c.962.083.962.237.962.295C206.747,628.207,205.012,628.216,204.815,628.216Z" transform="translate(-202.882 -588.705)" fill="#2f2e41"/><path d="M326.172,322.466H311.513a.434.434,0,0,1-.433-.433V316.3a.434.434,0,0,1,.433-.433h14.659a.434.434,0,0,1,.433.433v5.73A.434.434,0,0,1,326.172,322.466Z" transform="translate(-300.753 -306.775)" fill="#fff"/><path d="M373.432,330.148H369.7a.333.333,0,1,1,0-.666h3.731a.333.333,0,0,1,0,.666Z" transform="translate(-353.476 -319.088)" fill="#6c63ff"/><path d="M355.924,347.6h-7.862a.333.333,0,1,1,0-.666h7.862a.333.333,0,1,1,0,.666Z" transform="translate(-333.902 -334.873)" fill="#6c63ff"/><path d="M355.924,365.051h-7.862a.333.333,0,1,1,0-.666h7.862a.333.333,0,1,1,0,.666Z" transform="translate(-333.902 -350.659)" fill="#6c63ff"/></g></svg>