<svg xmlns="http://www.w3.org/2000/svg" width="72" height="91" viewBox="0 0 72 91"><defs><style>.a{fill:#f0db4f;}.b,.c,.d{fill:#0a1c36;}.c{font-size:11px;font-family:Roboto Mono;}.c,.d{font-weight:700;}.d{font-size:13px;font-family:RobotoCondensed-Bold, Roboto Condensed;}</style></defs><g transform="translate(-67 -61)"><rect class="a" width="70" height="76" transform="translate(68 61)"/><path class="b" d="M7.707,10.7a1.058,1.058,0,0,0,.97.986h1a1.12,1.12,0,0,0,.988-1.314A10.409,10.409,0,0,0,8.447,4.914a7.544,7.544,0,0,1-1.6-3.906A1.054,1.054,0,0,0,5.87,0H4.875a1.128,1.128,0,0,0-.988,1.314A11.6,11.6,0,0,0,6.349,7.476,6.436,6.436,0,0,1,7.707,10.7Zm6.792,0a1.058,1.058,0,0,0,.97.986h1a1.12,1.12,0,0,0,.988-1.314,10.409,10.409,0,0,0-2.219-5.454,7.544,7.544,0,0,1-1.6-3.906A1.054,1.054,0,0,0,12.662,0h-.995a1.124,1.124,0,0,0-.988,1.314,11.6,11.6,0,0,0,2.462,6.162A6.436,6.436,0,0,1,14.5,10.7Zm9.757,3.322H1.94A2.164,2.164,0,0,0,0,16.355V30.373c0,3.87,2.608,7.009,5.821,7.009H17.464c3.214,0,5.821-3.139,5.821-7.009h.97c3.748,0,6.792-3.665,6.792-8.177S28,14.018,24.256,14.018Zm0,11.682h-.97V18.691h.97a3.25,3.25,0,0,1,2.911,3.5A3.25,3.25,0,0,1,24.256,25.7Z" transform="translate(70.508 98.042)"/><text class="c" transform="translate(129 75)"><tspan x="-6.601" y="0">JS</tspan></text><text class="d" transform="translate(103 149)"><tspan x="-35.169" y="0">CAFE SCRIPT</tspan></text></g></svg>